<svg width="180" height="36" viewBox="0 0 180 36" fill="none" xmlns="http://www.w3.org/2000/svg" role="img" aria-label="PCN Rescue Pack">
  <rect x="1" y="1" width="34" height="34" rx="10" stroke="#0A0A0A" stroke-width="2"/>
  <path d="M10 24V12H16.6C20 12 21.8 13.7 21.8 16.4C21.8 19.1 20 20.8 16.6 20.8H13.4V24H10ZM13.4 18.1H16.2C17.7 18.1 18.4 17.5 18.4 16.4C18.4 15.3 17.7 14.7 16.2 14.7H13.4V18.1Z" fill="#0A0A0A"/>
  <rect x="23" y="7" width="8" height="4" rx="2" fill="#F7C948"/>
  <path d="M47 23V13.4H50.1V20.4H57.2V23H47ZM59.7 23V13.4H68.4V15.9H62.8V17.1H67.9V19.4H62.8V20.5H68.5V23H59.7ZM71.1 23V13.4H74.2L78.3 18.8V13.4H81.3V23H78.4L74.2 17.5V23H71.1ZM86.3 23V15.9H83.3V13.4H92.4V15.9H89.4V23H86.3ZM95 23V13.4H98.1V17H101.8V13.4H104.9V23H101.8V19.6H98.1V23H95ZM108 23V13.4H116.7V15.9H111.1V17.1H116.2V19.4H111.1V20.5H116.8V23H108ZM119.3 23V13.4H125.3C127.8 13.4 129.2 14.6 129.2 16.6C129.2 18 128.4 19 127 19.4L129.3 23H125.8L123.8 19.8H122.4V23H119.3ZM122.4 17.5H124.9C125.8 17.5 126.2 17.1 126.2 16.5C126.2 15.9 125.8 15.6 124.9 15.6H122.4V17.5ZM132.2 23V13.4H140.9V15.9H135.3V17.1H140.4V19.4H135.3V20.5H141V23H132.2Z" fill="#0A0A0A"/>
</svg>
